<?xml version="1.0" encoding="UTF-8"?>
<svg id="Layer_1" xmlns="http://www.w3.org/2000/svg" version="1.1" viewBox="0 0 1080 250">
  <!-- Generator: Adobe Illustrator 30.4.0, SVG Export Plug-In . SVG Version: 2.1.4 Build 226)  -->
  <g>
    <path d="M329.67,101.62l.04,79.4-97.1-.02V39.71s85.65.06,85.65.06l2.55-2.58.07,55.42-8.8.11-.17,8.91h17.77ZM239.57,48.43h-1.36v4.07h1.36v-4.07ZM316.52,48.49l-4.24.23c-.34,3.2-.46,5.16,2.89,6.07l1.35-6.3ZM235.96,126.89c1.55,2.1,1.37,5.1.12,7.88,1.68,3.24,1.91,5.68.55,9.67.44.64,1.76,1.56,2.48,1.48.63-.06,1.94-.67,2.35-1.04V57.48s-5.51.06-5.51.06l1.79,7.86c-1.72.83-2.34,2.65-1.58,4.26,1.16,2.46,0,4.49,0,6.53l-.03,32.09-.09,8.93c.66,3.15.7,6.3-.08,9.69ZM285.59,57.36l-17.84.03.05,35.57,17.84-.03-.05-35.57ZM316.33,70.51l.58-13.09h-4.89s.21,16.74.21,16.74c.01,1.17,3.18,1.29,4.13.81s-.08-3.36-.04-4.46ZM288.14,83.6l6.23.5-.04-17.86h-4.61s1.17,5.61,1.17,5.61c.12.58.47,1.99.11,2.39l-1.5,1.65c.06,2.17-.22,5.58-1.37,7.72ZM262,83.52l.47-7.58-.8-1.01c-.15-.19-.88.29-.85.53l.14,1.36c.61,5.78-1.22,7.75,1.03,6.7ZM319.5,84.19l-7.48-.41.29,8.05c3.33-2.58,5.54-3.66,7.19-7.64ZM310.03,101.36c-1.24-1.55-2.38-3.13-2.33-4.37.04-.99.97-2.53,1.92-4.22l-6.35-.11-.04,8.94,6.79-.24ZM326.46,110.12c1.09-.03.6-3.69-.35-3.91-5.67-1.33-8.67,1.81-13.84-2.15l-.12,6.4,14.31-.34ZM262.73,118.37c.83-3.88,1.58-5.89,5.18-6.98l-.09,25.59,26.62-.13v-26.46s-35.33-.04-35.33-.04l-.04,26.5,7.6-.2c-1.53-1.79-3.4-4.53-3.86-6.65-.2-.92,2.34-2.39,3.03-2.34-1.14-2.65-1.55-5.39-.14-8.02l-2.98-1.28ZM325.47,119.18l-4.52.07c-.08,3.12.69,5.52,2.53,8.17l1.99-8.24ZM323.56,155.52c3.19-1.51,1.71-3.84,1.71-6.01l.04-17.29c0-1.48.47-3.22-.15-4.02s-4.2-.54-4.22.46v25.23c.01.72,1.87,2.15,1.52,2.69-1.42,2.2-2.26,4.39-1.03,6.57.47.83,3.86.24,3.65-.7l-1.53-6.93ZM285.69,145.62l-.31-4.48c-6.14.69-11.67.92-17.39-.07v4.58s17.69-.03,17.69-.03ZM239.57,150.97h-1.36v3.4h1.36v-3.4ZM303.25,175.93l-.02-3.32-32.26-.19c-1.31,0-2.45-.11-3,.4s-.32,3.13.49,3.15l23.93-.08,10.86.04ZM263.68,174.81c-1.18-1.3-3.9-1.94-4.48-.88-.54.99.93,2.25,1.71,1.95l2.77-1.07ZM309.14,174.67c-.53.27,1.04,1.21,1.47.82.33-.29.72-.79.98-1.15s-1.92.06-2.45.33ZM323.22,174.43c.13.34.78,1.35.83,1.09l.16-.78c.05-.25-1.09-.58-.99-.32Z"/>
    <path d="M153.2,40.24l-.19,33.95c-.02,1.32-4.8,1.18-5.58.24l4.76-8.11-7.89.06-.04,34.2c-.25,1.32-4.91,1.13-5.31.53l3.06-8.29-6.54-.1v88.07s-5.98.19-5.98.19l3.91-6.24c-1.51-3.31-1.33-6.3-1.25-9.78l.2-8.97c-.96-2.51-1-5.44-.06-8.55-1.38-2.22-1.76-4.57-.57-7.04l.38-2.47-1.86-2.13,1.47-7.65-5.02-.07-.09,52.95h-61.76s.02-97.08.02-97.08l-6.09.07,2.66,8.11-3.41,1.04,2.92,8.15-4.91.1v-44.07s-7.83.22-7.83.22l4.85,8.28-5.88.38.09-26.45,48.9-.06c1.12,0,.8-3.84-.23-4.08-1.3-.3-2.78-.09-4.27.39-.03-.26-.14-2.36-.67-2.31l-2.44.26c-2.53,1.61-5.22,1.55-7.09-.33-3.26.74-5.97.6-9.01.58l-12.09-.07c-2.23-.01-3.53.53-5.73.47l-8.5-.23c-.8-.02-3.13-.28-3.17.51-.07,1.17.09,2.37.42,4.64l-5,.24.18-8.82,61.62.03v88.31s17.7-.09,17.7-.09v-43.06c-.01-1.55,4.66-1.21,4.22-.05l-2.81,7.4,3.25.87c.67.18-.09,2.13-.31,2.85l-1.69,5.4,6.17.23V30.96s35.21,0,35.21,0l.11,17.31-6.81.28,4.34-8.39-5.31-.63-1.03.7ZM153.22,39.23l-.08-3.57-14.1-.16-4.62.29-2.79.35c-.8.1-.75,2.37-.51,3.57l21.82-.02.28-.46ZM91.5,74.8c-.01.95,3.86.84,3.88-.13l-.22-25.59-.77-6.36c-.12-.95-3.12,1.62-2.9,2.56.28,1.18.42,2.14.4,3.59l-.39,25.93ZM52.17,48.5l-.02,4.61h3.51s.02-4.6.02-4.6h-3.51ZM144.75,57.88c-.48.71-.25,3.15.45,3.6s2.43.35,2.77-.4c.39-.88.56-2.43.32-3.22s-3.07-.66-3.53.03ZM63,75.59h-1.36v3.4h1.36v-3.4ZM95.69,83.75l-1.62-6.85c-1.86,1.13-3.23,4.9-2.31,6.44.43.73,3.04.61,3.94.41ZM136.26,84.15c-.72.4-.57,2.71-.1,3.35s2.37,1.22,2.57.46l.89-3.25c.21-.78-2.44-1.07-3.35-.56ZM123.5,98.31c-.36.74-.57,2.87-.01,3.18.41.23,1.98.16,1.96-.32l-.09-2.45c-.02-.48-1.64-.85-1.86-.4ZM129.34,119.75l-.15,2.72.15-2.72ZM68.37,172.97c-.11,3.82,1.31,7.38,5.35,7.03l-.03-42.86-1.37-.65c-.25-.12-1.04-.8-.8-.67s1.63-.68,1.65-.95l.52-6.66-3.98-.19.7,7.8-1.78,2.15.58,3.01c.56,2.06.35,4.2-.42,5.97l.04,10.02-.47,16ZM111.61,176.95l5.57.31,1.27-1.62,2.44.44c.84.15,2.93-.26,3.18-1.07.21-.68-.34-2.16-.9-2.83l-40.76.02.29,5.3c6.58-2.07,8.36-.37,14.4-.42l14.51-.13Z"/>
    <path d="M382.74,110.36l-.11,17.76,8.96.04-.16,8.77,35.53-.04-.13-8.75,8.8.15.07,49.37,3.07.41c.69.09.82-2.33.47-2.94s-.5-.68-2.43-2.64l7.58-.17-.19,8.71h-96.81s.02-149.96.02-149.96l17.04-.04c.99,0,.83,3.9-.06,3.72l-7.22-1.45c-1.05-.21-2.15,2.48-4.26,1.76-.9-.3-3.14.39-3.73,1.1s-.75,2.57-.41,3.64h86.91s-.09,26.45-.09,26.45h-52.93s-.01,17.7-.01,17.7h35.32s.03,26.46.03,26.46l-35.26-.04ZM349.8,117.83c1.18,3.19.88,5.89-.05,8.79,1.65,2.29,1.46,5.16.58,8.06,1.11,3.16,1.12,6.3.11,9.61,1.27,2.11,1.75,4.44.76,6.76l-.48,2.67,1.75,2.2-1.53,7.24,5.27.28V48.67s-5.34.07-5.34.07l1.52,7.57-1.83,2.16.43,2.3c1.06,2.37.96,4.77-.62,6.72.93,3.47.95,6.69-.05,10.09.85,2.76.99,5.33-.61,7.57.31,1.67.85,4.47.76,5.85l-.52,8.4.22,13-.37,5.43ZM431.07,48.63l-4.05.05-.16,11.57c-.01.99,1.23,2.36,2.46,2.29,2.87-.16.04-6.25,1.75-13.91ZM408.31,63.21l2.16-2.2c.31-.32,1.56.22,1.97.38l5.4,2.14.18-6.12h-35.26s.13,7.23.13,7.23c2.39-2.27,4.8-3.31,8.12-4.09l.89,3.67c5.01-2.33,11.79-1.97,16.41-1.01ZM376.41,73.56v.44s0,.46,0,.46v.44s0-.44,0-.44v-.9ZM408.82,92.76l.48-3.6-8.09-.04c-1.11,0-.98,2.98-.28,3.58,2.89-1.98,5.01-2.22,7.89.06ZM411.45,89.57c.03.51.67,2.15.78,1.74l.37-1.42c.07-.27-1.16-.6-1.14-.32ZM409.12,106.94l.1-5.37-17.64-.04.07,6c5.87-2.34,10.89-1.86,17.47-.58ZM431.03,136.93c.67-.07,2.01-1.41,2-2.08-.01-.54-.58-1.46-1.12-1.52s-2.16.05-2.68.24c-.66.25-1.42,1.67-1.53,2.36s1.7,1.16,3.33.99ZM414.63,175.78c.93,0,3.29.47,3.3-.26l.03-2.92-41.23-.11c-1.33,0-2.64.33-2.86,1.09-.17.61-.13,2.44.5,2.4l2.89-.15,37.36-.05ZM353.09,174.45c.09.28.81,1.33.85,1.08l.14-.78c.05-.25-1.07-.54-.99-.3ZM365.21,174.06v1.36h3.4v-1.36h-3.4ZM423.61,174.06v1.36h3.4v-1.36h-3.4Z"/>
    <path d="M214.93,180.99l-52.95.04.03-44.24c1.05-.53,4.6.23,4.34,1.28l-1.74,7.09,2.06,1.12c.48.26.27,1.82.08,2.37l-1.91,5.71,5.98.42V39.77s35.28,0,35.28,0v114.78s6.14-.18,6.14-.18l-2.2-7.43,2.97-2-1.21-3.56-1.05-2.52c-.25-.6.79-2.03,1.44-2.08.89-.07,2.41.98,2.75,1.88l-.02,42.34ZM177.85,45.71c0-.42-.34-.76-.76-.76s-.76.34-.76.76.34.76.76.76.76-.34.76-.76ZM175.48,100.87c.15.76,3.94,1.26,3.96.49l.05-3.2-.04-46.07c0-1.33.44-3.56-.52-3.61-1.07-.06-2.93-.06-3.49.55s.06,2.39.39,3.41c.79,2.5.37,4.52-.75,6.1l.24,33.99c2.25,2.4-.23,6.32.16,8.34ZM201.72,97.09l.11-25.95c.02-5.19-1.62-7.32-.28-13.51-.74-.36-3.46-.34-4.13.47l-.02,51.88,4.29.43-1.36-8.2c2.39-1.01,1.4-3.13,1.4-5.12ZM176.64,110.54c2.33-1.66,1.08-3.18-.18-3.69l.18,3.69ZM170.5,162.43c-.27-1.31-.73-2.84-1.02-3.43-.23-.47-2.01-.54-2.07-.05l-.47,3.97c-.11.9,3.74.37,3.55-.5ZM209.78,163.12c1.32-.09-.25-5.06-1.31-4.27-3.15,2.36-2.36,4.51-1.73,4.47l3.04-.2ZM197.21,176.8l.13-4.59-17.63-.02.1,4.54c6.21-.94,10.8-.93,17.4.06ZM202.9,174.06v1.36h3.4v-1.36h-3.4Z"/>
    <path d="M302.39,34.34l-8.04-.03-33.39-.25c-3.1.34-6.09.41-9.35-.04-2.31,1.22-5.25,1.09-8.1.17-2.55,1.08-4.97,1.33-7.76,1.02l-2.51.34c-.55.07-.74-1.85-1.14-2.23-.78-.75-3.59-.13-3.77.96-.22,1.32.02,2.84.48,5.23l-5.07.32.21-8.87,105.47.02c.29,2.55.42,6.07.11,7.97-.22,1.32-4.78.93-4.89.43.61-1.8,1.13-3.87.92-5.3-.2-1.32-3.28-1.94-4.48-1.6l-.48,4.05-7.14-1.15c-1.52-.25-3.49-1.7-5.56-.57-1.72.94-4.17-.44-5.51-.45Z"/>
    <path d="M427.82,35.06c-.71-.02-1.39-1.66-2.02-1.52l-3.49.78-3.26.73c-.7.16-.9-2.14-1.49-2.55-1.11-.75-3.54.96-5.16,1.36l-2.18.54c-.63.16-1.31-1.38-1.18-2.03s1.52-1.43,2.31-1.43l23.12.08c1.23,0,1.55,4.11.65,4.28l-7.28-.25Z"/>
    <path d="M116.16,110.44c-.51,2.26-1.64,3.43-3.09,4.27s-3.69-.43-5.11-.59l-3.43-.36c-.81-.09-1.1-3.27-.22-3.27l11.85-.05Z"/>
    <path d="M205.8,35.49c-3.41-.51-5.3-.34-8.35.69l-.12-5.15,9.04-.02-.57,4.48Z"/>
    <path d="M435.12,74.68c-1.84.42-5.63.44-8.2.43l.18-5.39c3.59,2.14,5.32,2.05,8.1.45.4.06.76,4.31-.09,4.51Z"/>
    <path d="M391.18,124.5c-.24.81-3.08-.38-3.06-1.19l.11-3.48c.03-1.06-1.25-3.29-.81-4.29.62-1.39,2.46-2.56,4.03-2.33l-.27,11.29Z"/>
    <path d="M214.83,38.8c-.01,1.25-4.25,1.2-4.27.6.58-1.73,1.1-3.47,1.06-4.82-.03-1.07-1.62-2.1-3.07-3.29l6.37-.29-.09,7.81Z"/>
    <path d="M178.76,34.65l-7.2-.62c-.85-.07-.85-2.93.04-2.92l7.57.03c.84,0,.44,3.58-.41,3.51Z"/>
    <path d="M399.37,128.3c1.31,0,1.27,4.47-.02,4.49-3.13.04-4.82-1.79-6.5-4.45l6.52-.04Z"/>
    <path d="M426.75,128.6l-4.91,3.04c-.6.37-2.09.77-2.76.79-.83.02-1.43-2.17-1.16-2.96s1.73-1.41,2.76-1.67l6.06.79Z"/>
    <path d="M444.6,34.96l-.31,4.29c-.07,1.02-4.26.65-3.72-.22l2.07-3.33c.55-.88-.93-2.84-2.04-4.02.3-.38,2.32-1.04,3.11-.63s.97,2.9.9,3.9Z"/>
    <path d="M143.93,110.03c-.35.79-3.82.3-3.88-.6-.12-1.68,1.9-4.49,3.8-5.38.51,1.76.67,4.66.08,5.99Z"/>
    <path d="M42.63,48.14c-.7.45-3.23.92-3.77.29-.65-.75-.5-2.27-.35-4.72l2.86.91c.89.28,2.05,3.01,1.26,3.52Z"/>
    <path d="M387.04,75.93c.36-.77,2.86-.99,3.95-.79l.56,4.34-3.1.06c-.97.02-2.01-2.33-1.41-3.6Z"/>
    <path d="M165.26,131.63l-3.07,3.28-.17-5.72c-.03-.9,2.56-1.44,3.23-.92s.59,2.75.01,3.36Z"/>
    <path d="M440.5,164.17c.24-.89,3.84-1.06,3.84-.24v3.5c0,.84-2.07.68-2.81.14-.66-.49-1.37-2.13-1.02-3.4Z"/>
    <path d="M156.32,172.71c1.85,2.03-1.3,4.7-2.93,4.49l-.35-3.59c-.11-1.14,2.15-2.14,3.28-.9Z"/>
    <path d="M194.05,31.31c-.58,2.47-3.48,3.98-5.27,2.85-.78-.49-.06-3.33.78-3.25l4.48.4Z"/>
    <path d="M158.71,54c.58-.5,2.6-.41,2.98.15.48.7.45,3.18-.39,3.19h-2.92c-.85.01-.72-2.43.33-3.34Z"/>
    <path d="M59.54,109.97c-.63.29-2.34.47-3,.39-.83-.1-.61-2.81-.26-3.72.25-.63,1.76-.19,2.35.15.7.41,1.65,2.84.91,3.18Z"/>
    <path d="M224.62,45.75c.5-.43,2.18-.06,2.58.45s.54,2.26-.1,2.28l-2.89.08c-.65.02-.31-2.19.41-2.81Z"/>
    <circle cx="107" cy="103.23" r="1.89"/>
    <path d="M373.87,32.56c.28.63-2.33,1.89-2.78,1.38l-1.88-2.17c.92-1.41,3.77-1.22,4.66.79Z"/>
    <path d="M424.3,89.85l1.9.73c.6.23.52,2.34-.1,2.22l-2.73-.54c-.62-.12.46-1.9.93-2.41Z"/>
    <circle cx="407.1" cy="129.44" r="1.65"/>
    <path d="M211.7,128.96c.13-.44,2-.95,2.59-.98l.26,2.57-1.77.76c-.59.25-1.31-1.56-1.08-2.35Z"/>
    <path d="M222.95,172.8c.11.6-.97,1.68-1.5,1.97s-1.86-1.08-2.09-1.72c-.35-.97,3.41-1.26,3.6-.25Z"/>
    <path d="M441.74,134.96c.77-.1,2.03-.1,2.54-.03s.02,1.98-.49,1.97l-2.18-.03c-.51,0-.35-1.84.14-1.91Z"/>
    <path d="M118.11,31.95c0-.38,1.78-.59,2.2-.56s.57,1.17.17,1.28l-1.77.5c-.4.11-.58-.26-.6-1.23Z"/>
    <path d="M226.48,174.92l-2.93-2.15,2.76-.63c.47-.11,1.44,1.05,1.16,1.44l-.99,1.33Z"/>
    <rect x="442.12" y="127.67" width="1.29" height="3.01" transform="translate(180.21 508.37) rotate(-71.57)"/>
    <path d="M49.43,73.03c.13-.26,1.06.78.83.96l-1.21.94c-.34.27.08-1.32.38-1.9Z"/>
    <circle cx="120.05" cy="67.44" r=".76"/>
    <path d="M118.39,39.23c-.31-.07,1.06-.29,1.36-.2l.9.25c.31.09-.64.3-.95.24l-1.31-.28Z"/>
    <path d="M153.82,178.98c.03-.3.01.55-.03.84l-.14.98c-.04.29.04-.56.17-1.82Z"/>
    <polygon points="335.78 173.04 336.23 173.04 336.68 173.04 336.23 173.05 335.78 173.05 335.34 173.04 335.78 173.04"/>
    <polygon points="111.67 102.41 112.13 102.41 112.57 102.41 112.13 102.42 111.67 102.42 111.23 102.41 111.67 102.41"/>
    <path d="M291.37,128.35c-.96,3.9-2.5,5.48-5.67,7.87l-.13-8.06,5.79.19Z"/>
    <path d="M290.11,118.44c-.14.99-3.09,1.22-3.93.67-.98-.64-.68-3.68-.4-5.02.16-.8,2.33-.24,2.98.3.75.63,1.53,2.79,1.35,4.06Z"/>
    <path d="M276.61,65.4c-.88,1.24-4.71,1-5.61.52-.35-3.29,3.24-5.19,4.94-4.64.66.21,1.14,3.45.67,4.11Z"/>
    <path d="M276.55,84.35c.66.38.51,3.1-.19,3.35-.84.31-2.57.32-3.51.06-.86-.24-1.86-2.56-1.26-3.23.69-.77,3.86-.82,4.96-.18Z"/>
    <path d="M277.96,84.62c-.09-.48,1.56-.78,2.03-.75.62.04,1.43,1.53.94,1.91l-1.47,1.14c-.49.39-1.36-1.57-1.5-2.3Z"/>
  </g>
  <path d="M733.57,27.8c-1.03-9.24,4.44,2.5,9.18-2.25,2.04-2.05,7.35.45,10.17-.41l5.86-1.8c1.01-.31,1.53,4.33.43,4.34l-25.63.12Z"/>
  <path d="M688.49,24.33c-.03-.28.13,1.07.18,1.55.04.37-.21,1.12-.48.86l-1.31-1.23c-.28-.26-.21-.04,1.6-1.18Z"/>
  <path d="M671.87,25.98c.05-.68,1.94,1.33,1.78,1.38l-1.2.37c-.37.12-.63-1.05-.58-1.75Z"/>
  <rect x="724.77" y="25.02" width=".48" height=".48" transform="translate(194.49 520.06) rotate(-45)"/>
  <path d="M591.25,180.9l-44.2.09.11,17.63,52.91.03v44.1s-26.34,0-26.34,0l.11-6.16,8.46,3.84.16-6.54-26.49.04.07-8.87-8.89.05v-8.94s-8.84.1-8.84.1l.04-26.52-6.62.23,4.48,8.51-6.72.13v-17.68s-44.14.02-44.14.02l.02-52.42c.82-.54,3.47-.68,3.58.09.13.92-.32,2.73-.86,3.57l-1.97,3.06c-.54.84,2.65,1.31,2.96,2.18.6,1.68-.69,5.48-1.2,7.26l1.8,2.06c1.32,1.51-3.52,6.45.83,8.84l-1.75,7.55,5.42.19V30.92s51.24.14,51.24.14l.96.91c-7.67-.5-9.26,3.02-13.73.68-.5-.26-2.22-.71-2.38-.45l-1.49,2.27c-1.77,0-5.43-1.02-7.14-1.45l-2.01,2.04-3.61-.65-2.96-.88c-.73-.22-1.85,2.08-2.58,2.03-1.86-.12-5.12-1.2-7.28-1.91l-.27,6.08,75.74-.03c.64-.84.62-3.25-.2-3.69-1.05-.56-2.95-.12-4.43.67l-.75-3.02-7.41,1.9-2.12-2.17-3.73.74-3.12.61c-.77.15-1.23-1.75-1.49-2.58l-7.35,2.18c-.87.26-1.63-3.38-.69-3.38l35.04-.07.05,123.64,5.43-.2-1.52-6.97c2.3-2.67,1.5-5.84.2-9.18l1.76-2.32c.49-.65-.49-2.85-.61-3.7l-.46-3.24c-.1-.71,1.74-1.18,2.75-1.46l-2.12-5.09c-.27-.65-.26-2.57.24-2.97.62-.5,2.2-.3,3.13.17l.02,61.33ZM499.09,36.52l.49,2.77c.07.42,1.25-.05,1.31-.48l.34-2.34c.06-.43-2.21-.39-2.14.05ZM499.99,46.64c2.33-1.66,1.08-3.18-.18-3.69l.18,3.69ZM501.97,80.09c-1.23-2.83-.16-3.72.15-5.63,1.36-8.41.69-26.02.02-26.02l-2.65.02c-.62,0-.17,1.87-.17,2.55v21.85s-.01,10.15-.01,10.15c0,1.01,2.89,1.22,3.14.34.21-.73-.11-2.39-.48-3.25ZM547.09,145.68l.09-9.03,8.77.35.03-61.96-5.77.19,1.96,7.52-2.1,2.11.71,3.02.84,3.57-2.06,1.99,1.28,5.27c.14.58.06,2.29-.47,2.53l-2.33,1.02c5.02,8.36-.57,6.9-.12,12.6l.27,3.38,2.32,2.18c-.13,1.81-2.02,4.86-3.3,6.38l-.1-69.43h-17.64s-.05,79.07-.05,79.07l-3.39-3.74c-.6-.66-1-2.84-.79-3.68.18-.7,2.15-1.25,2.1-1.94l-1.09-5.31.02-14.91c0-2.4,1.32-4.78-1.01-6.86l1.17-6.49c-.03-.77-1.98-1.89-1.74-2.62l1.13-3.47c.24-.73.37-2.42.25-3.12-.09-.56-1.71-.65-2.57-.83.6-2.1,1.74-5.55,1.85-7.66.06-1.15-4.46-1.26-4.63-.12l-.13,61.2,8.83-.14-.09,8.96h17.76ZM553.27,69.94c.65.25,1.79-1.55,1.74-2.23s-1.22-1.67-2.22-1.48-.62,3.29.48,3.71ZM499.99,92.82c2.33-1.66,1.08-3.18-.18-3.69l.18,3.69ZM521.11,141.8c-.36,1.08-.42,2.9-.1,3.6s3.15.53,3.13-.24l-.11-3.01c-.03-.77-2.67-1.09-2.92-.35ZM586.47,162.58c.35-1.24-.79-4.63-1.54-4.8-2.9,1.87-2.83,5.11-1.82,5.42.75.23,3.14.15,3.36-.62ZM492.29,168.57h-1.36v3.4h1.36v-3.4ZM547.21,207.3l-7.27.42c2.09,3.74,4.13,5.67,7.14,8.08l.14-8.51ZM596.47,217.11c-.15-.58-1.93-1.61-1.81-2.16l.44-1.94,1.27-5.58-5-.04-.13,26.7,5.54-.39c-1.46-5.38-.68-11.77-.3-16.59ZM555.98,216.25l-5.16.23c-.06,1.46.26,3.27,1.2,4.1.74.66,2.51.87,3.79.86l.17-5.19ZM564.88,225l-8.31.34c2.51,3.04,4.18,4.8,8.01,6.88l.3-7.22ZM593.59,235.35c-.78.19-2.67,1.09-2.22,1.41l1.79,1.23c.45.31,1.85-.53,1.85-1.07s-.89-1.7-1.42-1.57ZM586.72,236.55c-.82.75,2.94.75,2.59.34l-.99-1.16c-.19-.22-1.25.5-1.6.82Z"/>
  <path d="M703.64,39.55c.86,0,.44-3.5-.4-3.59l-3.57-.36c-.41-.04-1.86,1.02-1.97.62l-.76-2.75-6.13,1.14c-4.06-.08-7.07-.13-10.89,1.32-.54.06-.74-4.86.58-4.86l25.47-.05.08,141.4,5.67-.5-1.62-5.79c-.27-.96.56-2.55,1.78-3.53l-1.44-7.08,1.9-2.43-.98-3.44c-.32-1.11-.59-2.85-.19-3.65s2.92-.54,3.7.02l-.03,34.94-105.89-.02V30.9s52.86-.02,52.86-.02l.13,17.23-4.8.19,1.76-8.83c.29-1.46.22-3.44-.73-4.38-1.31-1.3-2.33-1.09-4.45-1.05l-16.62.29c-.77.01-2.8.96-3.33,1.19l-7-1.81c-.04,1.19-.24,3.13-.92,3l-3.11-.61c-.52-.1-2.22.11-2.75.22s-.88,1.5-.46,1.84l1.87,1.5,31.67.05v97.16s26.51-.05,26.51-.05l.02-97.19,24.06-.09ZM612.22,94.66l.16,8.75c.06,3.24-.2,6.27.51,9.52-.65,2.83-.85,5.52.7,8.02-1.09,3.1-1.37,6.2.42,8.72l-1.58,7.02,5.34.15-.02-102.82c-1.25-1.11-3.96-.5-4.47,1.15-.35,1.13-.09,2.8.45,4.14l-2.44.79c.7,2.37,1.64,5.79,1.71,7.63l-1.84,1.83.65,3.08.73,3.52-1.84,2.65c.69,2.51,1,6.82.86,9.82l-.65,14.13c-.06,1.27,2.89,2.92.56,5.03-.06,2.19.25,4.53.74,6.86ZM685.36,57.94l-.24,2.24c-.05.47,1.32.56,1.34.09l.09-2c.01-.31-1.15-.62-1.19-.33ZM683.26,118.96l5.13.38-.18-50.21c0-.78.39-2.87-.3-2.88l-3.05-.07c-.72-.02-.35,2.5-.15,3.21.66,2.35-.48,5.2-.49,7.29l-.2,33.85c-.02,2.84,0,4.59-.76,8.44ZM699.73,70.07c.14-1.32.14-2.55,0-3.43v3.43ZM647.74,75.39c-.18-.57-2.57-.22-2.63.31-.17,1.39.84,3.7,1.85,4.72.68-1.17,1.11-3.94.78-5.03ZM700.1,74.85h-.68v8.83h.68v-8.83ZM648.12,105.66l.02-17.08v-4.28c0-.99-3.78-.91-3.78.2l.02,24.94c0,1.09,3.73,1.65,3.74.61v-4.38ZM699.75,92.47c.16-1.41.16-2.61.01-4.09v4.09ZM648.43,119.19l-1.65-5.95-2.29,5.7,3.94.26ZM687.5,127.97l-1.48-4.67-1.26,2.87c-.4.92.21,2.26,2.74,1.8ZM617.42,144.58c-.19-.96-.7-2.73-1-3.32-.24-.47-2.04-.56-2.1-.04l-.44,3.99c-.1.9,3.74.38,3.53-.63ZM683.33,176.74l4.01.62,2.12-2.03,7.61,1.5.07-4.63-70.67-.12.4,5.28c4.76-.92,6.97-.54,10.82-.45l8.06.17,26.13-.04,11.44-.31ZM623.66,175.04c-1.33-2.08-2.65-2.52-4.1-2.76-1.92-.32-2.63,2.86-1.28,3.48,1.06.49,3.28-.09,5.39-.72ZM706.33,174.54c.09.52.96,1.5,1.41,1.78s1.78.2,1.69-.29l-.35-1.91c-.09-.52-2.84-.09-2.75.42Z"/>
  <path d="M873.51,83.86l62.05.03v97.07s-97.08,0-97.08,0v-52.95s35.13.01,35.13.01l.12,8.85,26.55-.04v-26.51s-61.8,0-61.8,0V30.89s88.25.01,88.25.01v35.25s-35.23.05-35.23.05l-.06-8.84-26.47-.05-.03,26.53,6.99-.16c-2.15-2.81-3.41-4.78-5.03-8.33l6.86-.44-.25,8.95ZM909.09,35.63l-8.89-.11-33.65-.3c-3.54-.03-5.74.3-9.98-.33-.42.92-.76,3.44-.59,4.83l53.13-.06v-4.03ZM853.49,36.83l-5.88-1.25c-.31.43-.53,3.06.21,3.65,1.37,1.1,5.27-.08,5.66-2.41ZM915.63,37.51l2.41-.23c.39-.04-.6-1.13-.97-1l-1.51.52c-1.71.21-1.64.58.07.71ZM844.41,36.82l-.34.34.34.34.34-.34-.34-.34ZM920.47,36.82l-.34.34.34.34.34-.34-.34-.34ZM847.63,105.44c4.18.94,6.99,1.06,10.65.95l8.96-.26,5.74.28c.8.04,1.85-2.08,2.62-1.85l3.07.92c1.02.31,2.79.71,3.51.24s.52-2.5.37-4.08l-35.24-.18v-52.9s-5.26.27-5.26.27l1.49,7.41-1.92,2.2.35,2.39c1.19,2.26,1.04,4.62-.41,6.58.6,3.07.89,6,.18,8.82l.12,14.38c.03,3.04.79,7.38.12,10.38-.16.69-2.04,2.19-1.68,2.8l1.51,2.59c1.09,1.88,3.16,2.99,5.18,2.94l.65-3.9ZM882.59,53l.2-4.49-9.04-.03.27,5.72c3-1.3,4.79-1.29,8.56-1.2ZM890.46,52.24c.78.09,1.24-1.8,1.03-2.82-.31-1.5-5.42-.83-5.77-.03l-.97,2.21,5.72.63ZM921.74,60.89l.4-12.27-4.06-.02-.15,11.44c-.01.86,1.15,2.18,2.05,2.34.61.11,1.34-.78,1.75-1.49ZM896.94,59.78c-.29.58,1.21,1.94,1.44,1.37l.58-1.42c.16-.39-1.83-.35-2.02.05ZM932.26,153.12l-1.08-6.5,1.69-2.27-.74-2.95-.55-3.5,1.71-1.92c-.19-1.44-.93-4.53-.9-5.99l.25-13.07c.06-3.15.13-6.19-.78-9.52,1.05-2.6,1.29-5.44-.41-7.21l.81-11.94-3.81-1.99c-.81-.42-2.18,1.68-2.26,2.74-3.31-.7-6.16-.68-9.59-.72l-6.48-.06c-1.98-.02-3.94.97-6.45.39-1.23-.29-3.19.03-3.62.85-.37.7.32,3.1,1.18,3.1l25.45.07.07,70.49,5.66.04-2.37-7.5c.42-.28,2.31-1.96,2.21-2.56ZM894.68,90.1c.19-.57-1.63-1.47-2.13-1.14-.38.25-.91.8-1.2,1.2-.35.49,1.31,1.23,1.89,1.07.43-.12,1.3-.71,1.44-1.14ZM865.03,136.71l-.04-4.08c-6.11.84-11.21.83-17.57-.05v4.1s17.61.03,17.61.03ZM845.47,134.25c0-.57-.46-1.04-1.04-1.04s-1.04.46-1.04,1.04.46,1.04,1.04,1.04,1.04-.46,1.04-1.04ZM891.55,145.61l-.18-6.15c-2.89,1.29-5.48,1.38-8.64-.02l-.33,6.2,9.15-.02ZM897.08,143.58c-.38.19,1.08.55,1.34.23s.7-1.27.33-1.08l-1.67.85ZM846.17,153.21l.29-6.91c.03-.76-2.58-.97-2.59-.21l-.11,7.43c0,.37.93,1.11,1.3,1.15s1.08-.92,1.11-1.47ZM844.08,161.61c-.09.44.79,2.06.91,1.62l.52-1.83c.08-.29-1.36-.09-1.42.21ZM929.3,174.68l-.34.34.34.34.34-.34-.34-.34Z"/>
  <path d="M811.94,136.82l.04,35.23,6.31-.1-2.8-7.39c-.36-.96,3.24-1.69,4.06-1.52-2.34-3.19-2.59-6.53-1.8-10.15,1.37-6.22-1.85-8.01-.3-12.65l.82-2.46-1.79-1.6c.62-1.18.03-5.41-1.36-5.14l-11.82,2.27.23-5.35,17.24.13-.02,52.88-97.06-.02v-25.78c0-1,2.97-.94,3.45-.2.57.89.21,2.96-.4,4.12l-1.57,3.02c-.41.78,2.98,1.55,3.02,2.41.07,1.85-1.4,5.29-2.05,7.38l6.38.54V39.74s79.38-.02,79.38-.02l.04,26.46h-53.03s.1,17.64.1,17.64l44.09.13v25.42c-.01,1.21-4.52,1.21-5.12.67,3.19-5.5.43-10.59,3.22-17.05l-2.66-.75.24-5.58c.05-1.26-4.27-2.08-4.28-.88l-.18,24.5-26.52.07-.08,17.83,7.9.06c1.41.01,1.39,5.34-.06,5.16-3.03-.38-5.18-2.4-7.57-4.23l-.11,7.68h44.04ZM788.82,61.8l5.47,1.69.05-6.16-26.61.03.32,7.95c1.71-1.09,4.4-3.31,6.08-3.13l11.05,1.16c.49-1.29.95-2.36,1.49-2.2l2.15.67ZM760.37,60.94c1.77-.49,2.36-.72,2.25-1.13s-.64-1.63-1.02-1.45l-1.66.78c-1.08.11-.61,1.64.43,1.79ZM799.93,59.23v1.36h3.4v-1.36h-3.4ZM785.83,90.25l-8.99-1.37c-.26,1.27,0,2.83.65,2.72l8.34-1.35ZM788.48,88.66l-1.58,1.43,1.36,1.5,1.58-1.43-1.36-1.5ZM785.48,106.68l.04-5.17-17.63.06.16,5.12c3.04-1.23,5.9-2.73,8.75-.99,2.03,1.24,5.86.73,8.68.98ZM788.31,102.68c-.41.64-.87,2.14-.41,2.13l1.51-.03c.46,0,.36-1.09.14-1.49-.15-.27-1.08-.87-1.24-.61ZM763.26,120.23c-.93-3.32-.78-5.76.03-9.85l-4.15.08-.14,17.54,5.55-.12c-1-2.9-1.35-4.97-1.29-7.66ZM761.45,175.8l32.79.16c.36-.75.18-3.42-.67-3.42l-33.84-.26c-.89.16-2.21,2.36-2.93,1.99l-2.81-1.43c-.86-.44-3.01-.52-3.67.15-.56.56-.05,2.98.83,2.86,2.65-.36,7.14-.07,10.29-.06ZM732.79,175.36c0-1.16-.94-2.1-2.1-2.1s-2.1.94-2.1,2.1.94,2.1,2.1,2.1,2.1-.94,2.1-2.1ZM803.34,176.01c.35-2.98-1.67-3.27-2.97-2.68l-3.58,1.63,6.55,1.05ZM741.63,174.38c.1.3.8,1.34.85,1.09l.14-.78c.05-.25-1.07-.54-.99-.3Z"/>
  <path d="M979.79,181.02l-17.73-.18.06-43.71c.94-.71,4.31-.38,4.44.63s-.59,2.71-1.04,4.1l-1,3.06,2.65,2.01-1.64,7.38,5.38-.02v-85.61c4.49,1.57,3.64,8.47,1.68,14.45.09-.02,2.44,1.3,2.3,1.97l-1.35,6.77,1.75,1.9-.61,3.44c-.46,2.59-.8,3.92,1.35,5.58l-1.33,6.71c-.25,1.24,4.23,1.24,5.03.69v-52.85s-17.71-.01-17.71-.01l.02,8.86-8.84-.05v8.88s-8.78-.06-8.78-.06l-.02-42.68c-1.66-.15-4.01.36-4.57,1.48-.87,1.75-.41,3.89.31,5.65l-3.92.67c1.92,2.29,3.89,5.99,3.15,7.93-.24.64-3.25.63-3.76.43l.02-17.5,105.86-.04v52.84s-8.85.15-8.85.15l.2-18.31,3.4,5.62c1.5-4.53,1.52-8.28,1.35-12.61l-.5-12.9.5-5.97-4.93-.13.07,26.54-8.86.09-.02-8.85-17.69-.02.02,88.1c1.69.27,4.29.41,5.25-.29,1.57-1.14-3.54-7.36-1.38-7.87l3.79-.9-3.42-6.87c-.4-.81,1.85-1.91,2.62-1.66,1.2.38,1.97,1.8,1.97,3.33l-.04,32.29,8.82-.24-.08,10.37c-1.46-.91-2.43-1.51-3.68-1.51l-49.25.07.2,6.92,8.09-3.62.71,5.57ZM961.72,34.88v4.86h53.48v-4.86h-53.48ZM1035.01,34.99c-1,.18-2.48,1.41-2.46,2.12.03.74.95,1.79,1.87,1.71.7-.07,1.72-.84,1.99-1.49s-.7-2.46-1.4-2.33ZM960.91,36.94l-7.51-1.77-.27,4.01c3.02.92,6.25.88,7.78-2.24ZM1024.18,39.05c-.19-1.75-.21-3.08-.74-3.29-.39-.16-1.49-.13-1.93-.04l-5.82,1.19c2.33,2.28,5.32,3.79,8.49,2.14ZM1014.85,52c.37-.17.38-3-.39-3.05l-8.05-.47-.19,3.67,8.63-.15ZM957.79,58.01c-.74-.66-3.16-.89-4.02-.58s-.6,2.95-.27,4.03c.27.87,2.59.16,3.32-.39.63-.48,1.56-2.53.96-3.06ZM1002.06,75.6l-1.55-1.45,1.29-7.97-4.33.05-.07,35.54,4.6-.46-.21-10.25.27-15.47ZM1039.25,75.41c-1.3-.5-3.99-.4-5.58-.25.48,1.95,1.07,3.61,1.86,4.26s2.52.7,3.25.18,1.32-3.86.47-4.19ZM1001.01,109.76c.12-1-.38-3.41-.91-4.58-1.36,1.65-1.8,2.81-2.2,4.93.92.17,3.05.14,3.11-.35ZM978.49,118.65l-.36-2.93c-.06-.52-1.58-.84-1.68-.33l-.64,3.37c-.11.57,2.75.47,2.68-.11Z"/>
  <path d="M727.3,40.42l1.23,7.88-4.13.44,2.88,5.36c.45.85.56,2.82-.16,3.26s-3.36-.03-3.36-.99l-.04-25.39,17.17.03c1.19,0,.77,4.15-.64,3.85-6.04-1.29-12.29-2.19-14.31,1.95-.39.81,1.22,2.67,1.36,3.61Z"/>
  <path d="M819.73,40.23l-3.12-1.07c.66-1.8.81-3.18-.05-4.42-.63-.91-2.21-.94-3.86-.75l-8.56.94c-.77.09-1.64-2.48-2.38-2.18l-3.38,1.38c-.81.33-2.82.46-3.67.32s-.32-3.03.32-3.56l25.74.02-.07,16.87c0,1.04-4.4.88-4.16-.14.49-2.05,1.79-4.56,3.18-7.43Z"/>
  <path d="M1015.02,180.97l.33-5.21c3.57,1.32,5.25,1.62,8.13.28l.55,3.84c1.85.25,4.77-.19,5.17-1.58.44-1.54-.53-3.69-1.63-5.41-.05-1.03,4.88-1.19,4.92.24l.22,7.8-17.68.05Z"/>
  <path d="M501.75,185.9c1.15-.44,1.96,3.81.8,3.82l-17.22.08.22-5.63c5.37,3.77,8.96-1.23,8.91,4.5l7.29-2.77Z"/>
  <path d="M844.2,186.41c.95-.23,2.3-.26,2.86.13.7.48-.02,3.22-.99,3.22l-16.32.04.1-4.41c2.83,2.45,5.38,3.18,8.89,2.34l5.46-1.32Z"/>
  <path d="M873.69,74.4c-4.05-2.08-2.62-5.05-3.44-7.75-.45-1.48-1.87-2.88-.75-4.59.87-1.32,1.84-2.2,4.2-3.37v15.71Z"/>
  <path d="M606.73,180.71l-6.67.29.18-7.91c.03-1.3,4.19-1.25,4.05-.03l-.55,4.63c-.13,1.11,1.74,2.22,3,3.02Z"/>
  <path d="M957.76,180.82l-4.55.2.14-8.02c.02-1.22,4.34-1.1,4.13.21-.41,2.57-.61,4.72.27,7.61Z"/>
  <path d="M590.72,189.6l-8.2.23.19-4.32,8.21.29c.27-.21.67,3.77-.19,3.8Z"/>
  <path d="M899.58,74.84l-8.05.24.07-5.14c2.73,2.08,4.91,2.42,8.25,1.54.36.17.44,3.33-.26,3.35Z"/>
  <path d="M833.92,39.45l-4.33.15.19-8.16c.02-.7,3.41-.44,3.16-.19-.25,3.18-.23,3.96.98,8.21Z"/>
  <path d="M555.11,190.26c1.28.57.98,4.43.4,5.57-3.46-.46-5.42-2.52-6.89-5.7,1.56-.37,4.93-.57,6.49.13Z"/>
  <path d="M715.05,34.87l-.54,4.3c-.13,1-3.58.41-3.64.04.83-3.21,1.07-4.72-.5-7.82l3.13-.56c1.05-.19,1.69,2.92,1.55,4.03Z"/>
  <path d="M944.53,176.2l-.16,3.7c-.04.83-2.65,1.41-2.82.58l-1.45-7.31c-.17-.87,2.09-1.33,2.96-1.08,1.02.29,1.54,2.58,1.47,4.11Z"/>
  <path d="M767.16,81.07c-1.31,2-5.89-3.12-4.39-5.3.61-.88,3.38-1,4.22-.41.98.7,1.58,3.54.17,5.7Z"/>
  <path d="M918.28,74.72c-.41-.08-.39-2.58-.29-2.98s.97-.27,1.23.04l1.49,1.81,5.57-2.84c.41.51.81,3.82-.04,3.99-1.85.37-6.1.36-7.95-.02Z"/>
  <path d="M975.47,65.15c-.07.99-3.4,1.72-4.03.96-.73-.89-.64-3.72-.39-5,.17-.89,2.5-.51,3.12.08s1.39,2.57,1.29,3.96Z"/>
  <path d="M1023.02,154.84c1.35,1.52,1.04,4.49.33,6.41-2.42-1.76-4.06-3.46-4.93-6.25.95-.44,4.02-.83,4.61-.16Z"/>
  <path d="M1014.02,180.73l-7.83.28.14-4.29c3.12.54,4.28,1.13,7.7,4.01Z"/>
  <path d="M675.38,128.63c.78.61-.13,3.18-.93,3.69s-3.3,1.38-3.44.45l-.21-4.09c-.05-1.02,3.46-.93,4.58-.05Z"/>
  <path d="M657.33,128.86c.31-.81,3.19-1.27,3.82-.73.75.65.85,2.62.55,3.96-.18.82-2.04.89-2.99.52s-1.94-2.29-1.38-3.75Z"/>
  <path d="M891.84,115.23c.47-.62,2.55-.42,3.12.11.68.65,1.65,3.2.74,3.36l-3.32.58c-.93.16-1.35-2.98-.54-4.05Z"/>
  <path d="M987.27,180.99l-5.57-.25,3.48-2.93c.64-.54,2.56-.65,3.16-.08s-.17,3.3-1.07,3.26Z"/>
  <path d="M807.9,74.7c-1.54.35-4.54.75-4.54-.22l.03-3.71c3.23.42,4.12,1.55,4.5,3.93Z"/>
  <path d="M749.23,30.84c.78-.05,1.49,2.41.99,2.76s-2.12.91-2.67.6l-5.19-2.91,6.86-.45Z"/>
  <path d="M800.51,128.12c-.37,3.21-4.16,3.99-5.74,3.33-.47-.2-.61-2.95-.11-3.1,1.19-.29,3.79-.31,5.85-.22Z"/>
  <path d="M785.01,128.45c.55.37.75,2.5.2,2.82s-2.56.64-2.98.22l-2.94-2.96c1.72-.57,4.67-.77,5.71-.08Z"/>
  <path d="M600.35,168.69l-.03-4.94c0-.6,2.43-.46,3-.25.72.27.92,2.48.27,2.93l-3.24,2.26Z"/>
  <path d="M1028.07,74.21c-.6,1-3.79,1.23-4.07.28s-.38-3.19.54-3.56c1.41-.56,4.41,1.82,3.53,3.28Z"/>
  <path d="M962.34,133.39c-.14-1.05-.23-3.73-.04-4.93.09-.62,2.41-.48,2.99-.27.73.25.98,2.5.35,2.94l-3.29,2.27Z"/>
  <path d="M829.94,172.6c.51-.56,2.84-.55,3.52-.22s.27,2.04-.19,2.64-1.75,1.05-2.64,1.2-1.34-2.92-.69-3.63Z"/>
  <circle cx="531.36" cy="205.57" r="2.12"/>
  <circle cx="566.58" cy="240.88" r="2.08"/>
  <path d="M577.33,189.43c-.81.44-3.34.66-3.64-.11s-.31-3.15.49-2.99l2.45.48c.67.13,1.32,2.28.69,2.62Z"/>
  <path d="M714.05,141.89l-2.34-1.92c-.54-.45-.14-2.96.56-3.09,1.17-.23,2.64,1.14,2.69,2s-.27,3.54-.91,3.01Z"/>
  <circle cx="660.07" cy="55.49" r="2"/>
  <path d="M938.7,56.3c.53.76-3.1,1.51-3.05.66l.27-4.61,2.78,3.95Z"/>
  <circle cx="880.85" cy="130.02" r="2.01"/>
  <path d="M790.41,31.52c-1.01,1.95-3.26,3.08-4.76,1.8-.76-.65.74-2.83,1.63-2.61l3.13.8Z"/>
  <path d="M706.37,186.52c.22-.6,2.4-.25,2.41.38l.06,2.45c.02.63-2.09.82-2.49.35s-.28-2.36.02-3.17Z"/>
  <circle cx="880.75" cy="76.89" r="1.91"/>
  <path d="M952.12,80.38c.6-.46,1.6,1.85,1.2,2.36s-1.26.93-2.13,1.24c-.62.22-1.88-1.43-1.37-1.83l2.31-1.78Z"/>
  <path d="M509.14,190.61l-1.25-1.76,1.94-2.18c.44-.49,2.58.87,2.18,1.4-.58.78-1.36,1.38-2.86,2.55Z"/>
  <circle cx="562.96" cy="191.68" r="1.81"/>
  <path d="M953.42,164.03c-.14-.54,2.97-1.11,3.04-.53l.25,2.11c.07.59-1.51,1.27-1.95.88s-1.12-1.6-1.34-2.46Z"/>
  <path d="M723.42,146.16l2.78-.4c.62-.09.9,2.21.3,2.36l-1.91.46c-.65.16-.68-.05-1.17-2.43Z"/>
  <path d="M1011.62,119.97c.17-.61,3.26-.68,2.91-.19l-1.3,1.86c-.5.71-1.96-.45-1.61-1.67Z"/>
  <path d="M712.66,189.37c.12-.6,1.22-2.88,1.34-2.26l.39,2.15c.09.47-1.83.58-1.73.11Z"/>
  <path d="M673.55,31.5l-2.53,1.89c-.12-.57-.27-2.01.19-1.99l2.34.1Z"/>
  <polygon points="935.97 79.64 935.8 75.52 936.95 75.54 935.97 79.64"/>
  <path d="M893.53,129.37c.11-.23,1.11.67.93.85l-.81.81c-.27.27-.31-1.28-.12-1.66Z"/>
  <path d="M589,111.67c.24-.22,1.16-.83.99-.65l-.72.82c-.16.19-.47,0-.27-.17Z"/>
  <path d="M819.58,73.82c.18-.39,1.05.53.79.63l-1.13.43c-.25.1.21-.79.34-1.06Z"/>
  <polygon points="731.68 186.91 731.68 187.35 731.68 187.81 731.68 188.25 731.67 187.81 731.67 187.35 731.68 186.91"/>
  <polygon points="961.22 186.91 961.22 187.35 961.22 187.81 961.22 188.25 961.21 187.81 961.21 187.35 961.22 186.91"/>
  <rect x="953.51" y="189.04" width=".48" height=".48" transform="translate(145.5 729.84) rotate(-45)"/>
  <rect x="476.77" y="189.04" width=".48" height=".48" transform="translate(5.87 392.73) rotate(-45)"/>
  <rect x="726" y="65.44" width=".48" height=".48" transform="translate(166.27 532.77) rotate(-45)"/>
  <path d="M551.61,129.25c-.15,3.23-2.26,4.71-4.33,6.21l-.1-7.74c1.33-.31,4.49.46,4.44,1.53Z"/>
  <path d="M536.32,66.34l-3.46-.58c-.25-.04-.58-3.36,3.41-4.34.79-.19,2.06,1.45,2.19,2.25s-1.15,2.83-2.14,2.66Z"/>
  <path d="M538.44,137.8c.46-.62,2.42-1.07,3.08-1.08.82-.02,1.62,2.33.89,2.69l-2.27,1.12c-.94.46-2.43-1.74-1.7-2.73Z"/>
</svg>