<?xml version="1.0" encoding="UTF-8"?>
<svg id="Layer_1" xmlns="http://www.w3.org/2000/svg" version="1.1" viewBox="0 0 689.2 250">
  <!-- Generator: Adobe Illustrator 30.4.0, SVG Export Plug-In . SVG Version: 2.1.4 Build 226)  -->
  <g>
    <path d="M9.29,200V25.73h21.26v162.29l21.26,11.98V25.73h21.26v162.29l-42.53,24.44-21.26-12.46Z"/>
    <path d="M91.65,212.46V25.73h21.26v186.73h-21.26Z"/>
    <path d="M196.75,36.73v22.49l-21.02,12.47,21.02,12.22v106.08l-42.53,24.69-34.95-10.75,13.69-14.91V25.73h21.26v11l21.26-12.22,21.26,12.22ZM133.45,189l42.04,12.71v-105.59l-21.26-12.22v84.57l-20.78,20.53ZM175.49,71.44v-23.71l-21.26-10.75v46.68l21.26-12.22Z"/>
    <path d="M235.37,25.73h25.66v19.06h-25.66v45.71h22.24v18.82h-22.24v80.66l26.64,7.58-13.93,16.62-33.97-9.78V37.95l21.26-12.22Z"/>
  </g>
  <g>
    <path d="M364.53,23.77l21.26,12.22v153.98l-42.04,24.2,33.24,6.11-6.6,19.8-33.48-10.02,6.11-15.64-21.02-12.22V48.22l42.53-24.44ZM343.27,189.73l21.26,12.22V48.46l-21.26-11.73v153Z"/>
    <path d="M402.42,200V25.73h21.26v162.29l21.26,11.73V25.73h21.26v186.73h-21.26v-12.22l-20.78,12.22-21.75-12.46Z"/>
    <path d="M506.05,25.73h25.66v19.06h-25.66v45.71h22.24v18.82h-22.24v80.66l26.64,7.58-13.93,16.62-33.97-9.78V37.95l21.26-12.22Z"/>
    <path d="M607.72,36.73v40.82l-21.26,2.69v-32.51l-21.26-10.51v48.39l42.53,24.2v79.43l-42.53,24.44-21.26-12.22v-66.48l21.26-3.91v57.93l21.26,12.22v-78.7l-42.53-24.69v-48.88l42.53-24.44,21.26,12.22Z"/>
    <path d="M616.52,25.73h62.33v19.31h-20.53v167.42h-21.26V45.04h-20.53v-19.31Z"/>
  </g>
  <rect x="277.77" y="88.19" width="25.13" height="25.13"/>
</svg>